HIERARCHY
ROOT Hips
{
	OFFSET 0.000000 0.000000 0.000000
	CHANNELS 6 Xposition Yposition Zposition Zrotation Yrotation Xrotation 
	JOINT LHipJoint
	{
		OFFSET 0.000000 0.000000 0.000000
		CHANNELS 3 Zrotation Yrotation Xrotation
		JOINT LeftUpLeg
		{
			OFFSET 1.363060 -1.794630 0.839290
			CHANNELS 3 Zrotation Yrotation Xrotation
			JOINT LeftLeg
			{
				OFFSET 2.448110 -6.726130 0.000000
				CHANNELS 3 Zrotation Yrotation Xrotation
				JOINT LeftFoot
				{
					OFFSET 2.562200 -7.039590 0.000000
					CHANNELS 3 Zrotation Yrotation Xrotation
					JOINT LeftToeBase
					{
						OFFSET 0.157640 -0.433110 2.322550
						CHANNELS 3 Zrotation Yrotation Xrotation
						End Site
						{
							OFFSET 0.000000 0.000000 0.000000
						}
					}
				}
			}
		}
	}
	JOINT RHipJoint
	{
		OFFSET 0.000000 0.000000 0.000000
		CHANNELS 3 Zrotation Yrotation Xrotation
		JOINT RightUpLeg
		{
			OFFSET -1.305520 -1.794630 0.839290
			CHANNELS 3 Zrotation Yrotation Xrotation
			JOINT RightLeg
			{
				OFFSET -2.542530 -6.985550 0.000000
				CHANNELS 3 Zrotation Yrotation Xrotation
				JOINT RightFoot
				{
					OFFSET -2.568260 -7.056230 0.000000
					CHANNELS 3 Zrotation Yrotation Xrotation
					JOINT RightToeBase
					{
						OFFSET -0.164730 -0.452590 2.363150
						CHANNELS 3 Zrotation Yrotation Xrotation
						End Site
						{
							OFFSET 0.000000 0.000000 0.000000
						}
					}
				}
			}
		}
	}
}
MOTION
Frames: 19
Frame Time: 0.008333
15.919780 16.146112 1.529175 -125.056204 -84.638725 163.661800 -8.610256 -0.110810 3.478709 -10.062753 -3.749924 -75.832384 -2.581111 2.532985 35.326488 0.576251 1.575887 -1.942699 0.696100 -0.000000 -38.303700 8.276309 -0.589859 3.085099 18.773211 5.177341 -72.975529 4.133442 -4.003067 36.588723 0.475539 2.725533 -0.835403 -0.181000 0.000000 -71.420500
15.812135 15.859167 1.507210 -125.313138 -84.789297 163.783929 -8.463301 -0.420262 3.389525 -9.021120 -4.959859 -78.085900 -2.001815 3.024140 41.845018 1.086159 2.957655 -6.469172 0.505300 0.000000 -33.635100 8.250826 -0.158276 2.915579 17.549558 6.081336 -75.445348 3.304711 -4.600270 43.166860 -0.030545 1.473537 -4.571527 -0.288400 0.000000 -67.706701
15.707023 15.577015 1.482713 -125.227303 -85.082142 163.519966 -8.325256 -0.756295 3.264263 -8.142389 -6.151878 -80.205097 -1.447622 3.464126 48.178632 1.559272 4.240470 -10.650876 0.128900 0.000000 -29.536300 8.245639 0.341593 2.731115 16.227204 6.809626 -77.788841 2.486115 -5.093916 49.620022 -0.561561 0.090241 -8.288476 -0.248500 0.000001 -63.915900
15.603653 15.305005 1.456269 -124.427957 -85.493134 162.526409 -8.199155 -1.099939 3.110286 -7.435647 -7.293300 -82.152780 -0.931989 3.850020 54.138603 1.970084 5.393371 -14.372983 -0.365201 0.000000 -26.353801 8.265718 0.867908 2.545366 14.887885 7.382683 -79.936963 1.713985 -5.496574 55.735154 -1.092827 -1.401381 -11.841487 -0.056300 0.000000 -60.353300
15.501299 15.047996 1.428729 -122.240349 -85.990351 160.157143 -8.080750 -1.439329 2.938309 -6.885484 -8.356387 -83.915732 -0.460186 4.183630 59.601161 2.305496 6.383183 -17.581409 -0.908600 0.000000 -24.298800 8.316244 1.378268 2.372145 13.601229 7.836661 -81.853566 1.004729 -5.829189 61.364492 -1.607750 -2.976892 -15.122737 0.278101 0.000000 -57.313500
15.399020 14.810148 1.400901 -117.419066 -86.546900 155.187037 -7.959826 -1.777895 2.757021 -6.471459 -9.325803 -85.481524 -0.034536 4.465540 64.496260 2.562616 7.180247 -20.276373 -1.442500 -0.000000 -23.381200 8.403493 1.829961 2.221140 12.415793 8.196212 -83.526648 0.362284 -6.113324 66.420492 -2.096172 -4.604105 -18.068499 0.733900 0.000000 -54.971900
15.296186 14.594501 1.373392 -107.396407 -87.155646 145.062839 -7.832865 -2.155862 2.572313 -6.180514 -10.216404 -86.825851 0.341303 4.691826 68.791590 2.745164 7.765076 -22.496157 -1.923900 -0.000000 -23.445001 8.524926 2.158697 2.097239 11.353487 8.456065 -84.967222 -0.214831 -6.369558 70.862241 -2.552793 -6.243557 -20.659695 1.282600 -0.000000 -53.331200
15.191935 14.403114 1.346868 -87.147490 -87.844827 124.763698 -7.777603 -2.680762 2.394933 -6.035703 -11.084032 -87.904549 0.657615 4.868584 72.468876 2.859279 8.136840 -24.301054 -2.327500 0.000000 -24.244700 8.596780 2.247001 1.993313 10.384911 8.568403 -86.211971 -0.734162 -6.604220 74.692150 -2.977068 -7.852099 -22.905712 1.892499 -0.000000 -52.316399
15.085647 14.236727 1.321647 -55.465005 -88.585238 93.077378 -8.042640 -3.270803 2.256410 -6.119490 -11.837799 -88.736073 0.905166 5.077753 75.499139 2.917001 8.336031 -25.784376 -2.645300 -0.000000 -25.474700 8.367181 2.173312 1.884024 9.417955 8.623952 -87.229569 -1.206838 -6.739164 77.975879 -3.366241 -9.362332 -24.830359 2.533800 0.000000 -51.721901
14.976662 14.095035 1.298019 -28.121558 -89.088145 65.754763 -8.450475 -3.451685 2.152293 -6.303756 -12.163625 -89.465934 1.106475 5.353818 77.958310 2.942644 8.387131 -27.050187 -2.882099 -0.000000 -26.852799 8.011597 2.393819 1.798645 8.588720 8.950865 -87.857214 -1.610863 -6.728002 80.711807 -3.708648 -10.736942 -26.461916 3.181200 0.000000 -51.349100
14.864891 13.976969 1.275892 -13.193677 -89.223360 50.860560 -8.651251 -3.398063 2.042277 -6.466751 -12.220968 -90.025119 1.267816 5.588852 79.967785 2.947228 8.288608 -28.150814 -3.052900 -0.000000 -28.138000 7.874120 2.738387 1.765559 8.005530 9.411722 -88.172516 -1.930727 -6.693174 82.884296 -4.007737 -11.982746 -27.882075 3.815700 0.000000 -51.008800
14.749882 13.880556 1.255222 -5.262145 -89.168806 42.978529 -8.737678 -3.333598 1.932391 -6.652316 -12.182489 -90.354486 1.383496 5.767453 81.570028 2.938327 8.093141 -29.134385 -3.176800 -0.000001 -29.171200 7.859418 3.001753 1.766523 7.587942 9.846539 -88.278686 -2.177133 -6.666333 84.573839 -4.269836 -13.076453 -29.155388 4.424700 -0.000000 -50.569700
14.631571 13.803529 1.235798 -0.564434 -89.066866 38.337881 -8.789350 -3.278713 1.830916 -6.878432 -12.078608 -90.467251 1.456129 5.906368 82.818627 2.927468 7.858933 -30.049933 -3.274900 0.000000 -29.862799 7.887513 3.176886 1.790547 7.284883 10.238122 -88.207517 -2.360383 -6.637976 85.863509 -4.496963 -14.001810 -30.326021 5.000800 -0.000001 -49.960900
14.509925 13.743369 1.217384 2.680148 -88.985381 35.152728 -8.829758 -3.222315 1.743071 -7.136133 -11.925641 -90.397085 1.493171 6.015628 83.778481 2.925237 7.636396 -30.933520 -3.367400 -0.000000 -30.179500 7.934131 3.287679 1.832345 7.069182 10.586704 -87.987605 -2.489310 -6.604797 86.829698 -4.691214 -14.756771 -31.428782 5.540101 -0.000000 -49.161300
14.385058 13.697710 1.199705 5.388415 -88.952037 32.505189 -8.862878 -3.156690 1.672971 -7.409832 -11.745524 -90.182051 1.503696 6.099788 84.512210 2.939710 7.467647 -31.804371 -3.471600 0.000000 -30.137800 7.994268 3.354441 1.889150 6.918277 10.889082 -87.652535 -2.572928 -6.568400 87.541206 -4.855253 -15.349446 -32.485353 6.040401 -0.000000 -48.202000
14.257128 13.664413 1.182566 8.086333 -88.974203 29.872904 -8.887524 -3.079109 1.623683 -7.682992 -11.560117 -89.863215 1.496714 6.161587 85.075641 2.975505 7.381431 -32.668510 -3.600500 0.000000 -29.791800 8.067674 3.391971 1.959185 6.812144 11.142353 -87.238627 -2.620383 -6.531761 88.058232 -4.992456 -15.796050 -33.505264 6.500100 0.000000 -47.149800
14.126386 13.641785 1.165823 11.119368 -89.049100 26.916515 -8.901442 -2.989790 1.596986 -7.941073 -11.387081 -89.481208 1.480389 6.203249 85.514589 3.033694 7.392724 -33.518517 -3.760900 -0.000001 -29.226600 8.154708 3.410894 2.041318 6.733648 11.346718 -86.780371 -2.640115 -6.497396 88.428080 -5.106565 -16.118090 -34.486198 6.917800 0.000000 -46.096300
13.993023 13.628554 1.149399 14.743919 -89.167093 23.388602 -8.902590 -2.890480 1.593483 -8.173131 -11.237154 -89.072345 1.461107 6.226750 85.861907 3.111557 7.500656 -34.334427 -3.952200 -0.000000 -28.565800 8.255356 3.417902 2.135783 6.668852 11.507946 -86.307048 -2.639398 -6.466435 88.682716 -5.201511 -16.340878 -35.414744 7.291700 0.000000 -45.154900
13.857463 13.624069 1.133375 19.140631 -89.314827 19.110115 -8.890147 -2.784431 1.610375 -8.374265 -11.110815 -88.658110 1.443030 6.234079 86.139981 3.203478 7.691311 -35.091882 -4.167600 -0.000000 -27.924100 8.369087 3.415864 2.240999 6.612227 11.632683 -85.829512 -2.622989 -6.438778 88.838798 -5.280524 -16.487147 -36.276615 7.620800 0.000000 -44.406500
